<svg xmlns="http://www.w3.org/2000/svg" viewBox="0.0 0.0 24.0 24.0" height="200px" width="200px"><path fill="none" stroke="black" stroke-width=".3" stroke-opacity="1.0" filling="0" d="M7.9 9.1 L11.8 9.1 L15.8 9.1 C16.2 9.5 16.5 9.9 16.9 10.2 L16.9 14.2 L16.9 18.2 C16.5 18.5 16.2 18.9 15.8 19.3 L11.8 19.3 L7.9 19.3 C7.5 18.9 7.1 18.5 6.8 18.2 L6.8 14.2 L6.8 10.2 C7.1 9.9 7.5 9.5 7.9 9.1 L7.9 9.1"/> <path fill="none" stroke="black" stroke-width=".3" stroke-opacity="1.0" filling="0" d="M11.6 9.1 L12.1 9.1 L12.1 15.0 L16.9 15.0 L12.1 15.6 L12.1 19.3 L11.6 19.3 L11.6 13.4 L6.8 13.4 L6.8 12.8 L11.6 12.8 L11.6 9.1"/> <path fill="none" stroke="black" stroke-width=".3" stroke-opacity="1.0" filling="0" d="M11.8 9.1 L15.8 9.1 C16.2 9.5 16.5 9.9 16.9 10.2 L16.9 15.3 L11.8 15.3 L11.8 9.1"/> <path fill="none" stroke="black" stroke-width=".3" stroke-opacity="1.0" filling="0" d="M6.8 10.2 L6.8 10.2 C7.1 9.9 7.5 9.5 7.9 9.1 L11.8 9.1 L11.8 13.1 L6.8 13.1 L6.8 10.2"/> <path fill="none" stroke="black" stroke-width=".3" stroke-opacity="1.0" filling="0" d="M6.8 13.1 L11.8 13.1 L11.8 19.3 L7.9 19.3 C7.5 18.9 7.1 18.5 6.8 18.2 L6.8 13.1"/></svg>