<svg xmlns="http://www.w3.org/2000/svg" viewBox="0.0 0.0 24.0 24.0" height="200px" width="200px"><path fill="none" stroke="black" stroke-width=".3" stroke-opacity="1.0" filling="0" d="M12.9 21.5 L12.9 21.5 C12.4 20.5 12.9 20.1 13.2 18.9 C13.5 17.5 13.6 16.1 13.4 14.7 C13.3 12.9 12.4 11.1 12.3 9.4 C12.3 9.2 12.4 8.7 12.7 8.7 C13.6 8.9 14.1 12.0 14.2 12.6 C14.5 14.1 14.6 15.7 14.5 17.2 C14.3 18.7 13.8 20.2 12.9 21.5 L12.9 21.5"/> <path fill="none" stroke="black" stroke-width=".3" stroke-opacity="1.0" filling="0" d="M11.1 21.6 L11.1 21.6 C9.8 20.2 9.4 18.2 9.3 16.1 C9.3 13.9 9.7 11.7 10.0 9.9 L10.5 8.6 L10.9 9.6 C10.7 11.7 10.4 13.6 10.5 15.6 C10.5 17.6 10.8 19.5 11.6 21.4 L11.6 21.4 C11.4 21.5 11.3 21.6 11.1 21.6 L11.1 21.6"/></svg>